HIERARCHY
ROOT joint_Root
{
	OFFSET 0.0 0.0 0.0
	CHANNELS 6 Xposition Yposition Zposition Zrotation Xrotation Yrotation 
	JOINT Hips
	{
		OFFSET -0.726466 93.3139 -2.00062
		CHANNELS 6 Xposition Yposition Zposition Zrotation Xrotation Yrotation 
		JOINT Spine
		{
			OFFSET 15.7357 0.0 0.0
			CHANNELS 6 Xposition Yposition Zposition Zrotation Xrotation Yrotation 
			JOINT Chest
			{
				OFFSET 8.98455 -0.406207 0.0
				CHANNELS 6 Xposition Yposition Zposition Zrotation Xrotation Yrotation 
				JOINT Neck
				{
					OFFSET 16.3773 0.0 0.0
					CHANNELS 6 Xposition Yposition Zposition Zrotation Xrotation Yrotation 
					JOINT Head
					{
						OFFSET 6.45672 0.0 0.0
						CHANNELS 6 Xposition Yposition Zposition Zrotation Xrotation Yrotation 
						End Site
						{
							OFFSET 0.0 0.0 0.0
						}
					}
				}
				JOINT Shoulder_L
				{
					OFFSET 12.9942 -0.242716 4.98039
					CHANNELS 6 Xposition Yposition Zposition Zrotation Xrotation Yrotation 
					JOINT UpperArm_L
					{
						OFFSET 5.34809 0.0 0.0
						CHANNELS 6 Xposition Yposition Zposition Zrotation Xrotation Yrotation 
						JOINT LowerArm_L
						{
							OFFSET 24.3286 1.87007e-05 0.0
							CHANNELS 6 Xposition Yposition Zposition Zrotation Xrotation Yrotation 
							JOINT Hand_L
							{
								OFFSET 22.2916 0.0 0.0
								CHANNELS 6 Xposition Yposition Zposition Zrotation Xrotation Yrotation 
								End Site
								{
									OFFSET 0.0 0.0 0.0
								}
							}
						}
					}
				}
				JOINT Shoulder_R
				{
					OFFSET 12.9945 -0.242716 -4.98039
					CHANNELS 6 Xposition Yposition Zposition Zrotation Xrotation Yrotation 
					JOINT UpperArm_R
					{
						OFFSET -5.34813 0.0 0.0
						CHANNELS 6 Xposition Yposition Zposition Zrotation Xrotation Yrotation 
						JOINT LowerArm_R
						{
							OFFSET -24.3289 0.000322201 0.0
							CHANNELS 6 Xposition Yposition Zposition Zrotation Xrotation Yrotation 
							JOINT Hand_R
							{
								OFFSET -22.2915 -0.000108084 0.0
								CHANNELS 6 Xposition Yposition Zposition Zrotation Xrotation Yrotation 
								End Site
								{
									OFFSET 0.0 0.0 0.0
								}
							}
						}
					}
				}
			}
		}
		JOINT UpperLeg_L
		{
			OFFSET -2.19248 -6.46944 0.0
			CHANNELS 6 Xposition Yposition Zposition Zrotation Xrotation Yrotation 
			JOINT LowerLeg_L
			{
				OFFSET 39.0811 0.0 -1.23785e-05
				CHANNELS 6 Xposition Yposition Zposition Zrotation Xrotation Yrotation 
				JOINT Foot_L
				{
					OFFSET 40.9854 0.0 -1.26872e-05
					CHANNELS 6 Xposition Yposition Zposition Zrotation Xrotation Yrotation 
					JOINT Toes_L
					{
						OFFSET 11.7543 0.0 0.0
						CHANNELS 6 Xposition Yposition Zposition Zrotation Xrotation Yrotation 
						End Site
						{
							OFFSET 0.0 0.0 0.0
						}
					}
				}
			}
		}
		JOINT UpperLeg_R
		{
			OFFSET -2.19251 6.46944 0.0
			CHANNELS 6 Xposition Yposition Zposition Zrotation Xrotation Yrotation 
			JOINT LowerLeg_R
			{
				OFFSET -39.0811 -0.00228153 -0.0401928
				CHANNELS 6 Xposition Yposition Zposition Zrotation Xrotation Yrotation 
				JOINT Foot_R
				{
					OFFSET -40.9854 0.0 0.0
					CHANNELS 6 Xposition Yposition Zposition Zrotation Xrotation Yrotation 
					JOINT Toes_R
					{
						OFFSET -11.7543 0.0 0.0
						CHANNELS 6 Xposition Yposition Zposition Zrotation Xrotation Yrotation 
						End Site
						{
							OFFSET 0.0 0.0 0.0
						}
					}
				}
			}
		}
	}
}
MOTION
Frames:	9
Frame Time:	0.0333333
0.000000 0.000000 0.000000 0.000000 0.000000 -0.000000 -0.520732 92.257900 -0.591459 88.154100 0.082773 5.743410 15.735700 0.000005 -0.000001 79.833000 86.208200 -79.390800 8.984550 -0.406207 -0.000000 -0.295914 -1.369440 0.880391 16.377300 -0.000001 -0.000001 4.612030 -2.068410 -0.133518 6.456720 -0.000001 -0.000000 8.744200 -3.040370 -0.378266 12.994200 -0.242716 4.980390 -86.407900 -10.576300 -71.118200 5.348090 -0.000007 -0.000001 -87.639600 -26.532000 -98.292000 24.328600 0.000019 0.000005 9.534470 1.760790 -79.633000 22.291600 -0.000001 0.000005 19.862800 5.542830 -8.372470 12.994500 -0.242716 -4.980390 91.199300 -3.903090 -72.904500 -5.348130 -0.000001 -0.000004 -77.782600 -26.701800 -103.332000 -24.328900 0.000322 -0.000009 13.700000 4.247290 -73.102700 -22.291500 -0.000108 -0.000004 21.785400 5.405600 -3.120990 -2.192480 -6.469440 -0.000000 -175.250000 -8.217680 -1.240310 39.081100 -0.000007 -0.000012 -0.108566 0.252889 23.234200 40.985400 -0.000006 -0.000013 0.105793 4.445480 -66.420800 11.754300 -0.000000 0.000003 -0.000046 -0.000525 -16.598000 -2.192510 6.469440 -0.000001 179.014000 15.695600 -178.271000 -39.081100 -0.002282 -0.040193 -0.035822 0.108992 19.755400 -40.985400 0.000008 0.000006 3.456460 7.541930 -66.116400 -11.754300 -0.000006 -0.000006 -0.008438 -0.091573 -20.302400
0.000000 0.000000 0.000000 0.000000 0.000000 -0.000000 -0.511616 92.262100 -0.659351 88.151500 0.033993 5.693600 15.735700 0.000005 -0.000001 80.118800 86.200800 -79.662300 8.984550 -0.406207 -0.000000 -0.274848 -1.335640 0.909211 16.377300 -0.000001 -0.000001 4.669030 -2.085030 -0.148408 6.456720 -0.000001 -0.000000 8.955480 -3.080040 -0.514790 12.994200 -0.242716 4.980390 -86.407300 -10.566000 -71.098300 5.348090 -0.000007 -0.000001 -87.460900 -26.571600 -98.272100 24.328600 0.000019 0.000005 9.567450 1.820190 -79.328000 22.291600 -0.000001 0.000005 19.764200 5.542130 -8.340020 12.994500 -0.242716 -4.980390 91.224000 -3.978450 -72.883900 -5.348130 -0.000001 -0.000004 -77.770200 -26.734600 -103.465000 -24.328900 0.000322 -0.000009 13.359300 4.224640 -72.768300 -22.291500 -0.000108 -0.000004 21.622900 5.405850 -3.128700 -2.192480 -6.469440 -0.000000 -175.251000 -8.324330 -1.348040 39.081100 -0.000007 -0.000012 -0.109650 0.255192 23.252200 40.985400 -0.000006 -0.000013 0.122093 4.484850 -66.377000 11.754300 -0.000000 0.000003 -0.000040 -0.000467 -16.595700 -2.192510 6.469440 -0.000001 179.021000 15.687700 -178.375000 -39.081100 -0.002282 -0.040193 -0.039145 0.118293 19.748000 -40.985400 0.000008 0.000006 3.320740 7.609270 -66.036100 -11.754300 -0.000006 -0.000006 -0.008208 -0.089721 -20.226800
0.000000 0.000000 0.000000 0.000000 0.000000 -0.000000 -0.495305 92.276700 -0.723509 88.166500 -0.026078 5.726110 15.735700 0.000005 -0.000001 80.344600 86.148600 -79.883600 8.984550 -0.406207 -0.000000 -0.166662 -1.323540 0.919564 16.377300 -0.000001 -0.000001 4.761260 -2.056590 -0.194543 6.456720 -0.000001 -0.000000 9.085740 -3.031310 -0.507206 12.994200 -0.242716 4.980390 -86.406600 -10.532500 -71.039600 5.348090 -0.000007 -0.000001 -87.233500 -26.713400 -98.239000 24.328600 0.000019 0.000005 9.528360 1.860000 -79.055800 22.291600 -0.000001 0.000005 19.717700 5.541460 -8.309100 12.994500 -0.242716 -4.980390 91.221600 -3.956910 -72.827800 -5.348130 -0.000001 -0.000004 -77.497300 -26.796800 -103.541000 -24.328900 0.000322 -0.000009 13.150500 4.232260 -72.472200 -22.291500 -0.000108 -0.000004 21.571500 5.408170 -3.204910 -2.192480 -6.469440 -0.000000 -175.271000 -8.408850 -1.307480 39.081100 -0.000007 -0.000012 -0.107638 0.251499 23.170300 40.985400 -0.000006 -0.000013 0.141712 4.512400 -66.300100 11.754300 -0.000000 0.000003 -0.000038 -0.000444 -16.594900 -2.192510 6.469440 -0.000001 179.005000 15.645300 -178.375000 -39.081100 -0.002282 -0.040193 -0.038473 0.116728 19.700200 -40.985400 0.000008 0.000006 3.309260 7.635910 -65.954900 -11.754300 -0.000006 -0.000006 -0.008107 -0.088905 -20.193500
0.000000 0.000000 0.000000 0.000000 0.000000 -0.000000 -0.481409 92.281300 -0.789952 88.141200 -0.081181 5.703060 15.735700 0.000005 -0.000001 80.525000 86.108500 -80.039000 8.984550 -0.406207 -0.000000 -0.083241 -1.314190 0.970482 16.377300 -0.000001 -0.000001 4.867740 -2.002880 -0.204408 6.456720 -0.000001 -0.000000 9.152240 -2.947780 -0.516875 12.994200 -0.242716 4.980390 -86.419800 -10.430200 -70.934300 5.348090 -0.000007 -0.000001 -86.914000 -26.826400 -97.982100 24.328600 0.000019 0.000005 9.501610 1.861860 -79.014500 22.291600 -0.000001 0.000005 19.724500 5.540190 -8.251170 12.994500 -0.242716 -4.980390 91.212100 -3.900390 -72.721400 -5.348130 -0.000001 -0.000004 -76.830500 -26.958500 -103.305000 -24.328900 0.000322 -0.000009 13.427600 4.331300 -72.448000 -22.291500 -0.000108 -0.000004 21.985000 5.403320 -3.045700 -2.192480 -6.469440 -0.000000 -175.267000 -8.396770 -1.384540 39.081100 -0.000007 -0.000012 -0.107696 0.251344 23.194300 40.985400 -0.000006 -0.000013 0.138939 4.448680 -66.269400 11.754300 -0.000000 0.000003 -0.000044 -0.000510 -16.597400 -2.192510 6.469440 -0.000001 179.038000 15.619100 -178.446000 -39.081100 -0.002282 -0.040193 -0.038757 0.117603 19.687600 -40.985400 0.000008 0.000006 3.272650 7.674590 -65.890200 -11.754300 -0.000006 -0.000006 -0.008152 -0.089271 -20.208400
0.000000 0.000000 0.000000 0.000000 0.000000 -0.000000 -0.462810 92.289800 -0.852886 88.148300 -0.092796 5.679640 15.735700 0.000005 -0.000001 80.629200 86.067400 -80.132400 8.984550 -0.406207 -0.000000 0.000272 -1.313970 0.992996 16.377300 -0.000001 -0.000001 4.965540 -2.004440 -0.193519 6.456720 -0.000001 -0.000000 9.173500 -2.875540 -0.511042 12.994200 -0.242716 4.980390 -86.455000 -10.322000 -70.927400 5.348090 -0.000007 -0.000001 -86.507500 -27.038900 -97.169200 24.328600 0.000019 0.000005 9.082540 1.685070 -79.577700 22.291600 -0.000001 0.000005 19.646500 5.541180 -8.296920 12.994500 -0.242716 -4.980390 91.186900 -3.782980 -72.566700 -5.348130 -0.000001 -0.000004 -75.899100 -27.183200 -102.488000 -24.328900 0.000322 -0.000009 13.301300 4.140900 -73.017500 -22.291500 -0.000108 -0.000004 21.888500 5.402090 -3.005580 -2.192480 -6.469440 -0.000000 -175.303000 -8.400770 -1.443680 39.081100 -0.000007 -0.000012 -0.105974 0.247611 23.170400 40.985400 -0.000006 -0.000013 0.156997 4.440420 -66.212900 11.754300 -0.000000 0.000003 -0.000041 -0.000472 -16.595900 -2.192510 6.469440 -0.000001 179.043000 15.591000 -178.510000 -39.081100 -0.002282 -0.040193 -0.038271 0.116310 19.677200 -40.985400 0.000008 0.000006 3.284100 7.644440 -65.843100 -11.754300 -0.000006 -0.000006 -0.008585 -0.092744 -20.350300
0.000000 0.000000 0.000000 0.000000 0.000000 -0.000000 -0.449925 92.296800 -0.915805 88.117500 -0.109661 5.633150 15.735700 0.000005 -0.000001 80.588500 86.033500 -80.055600 8.984550 -0.406207 -0.000000 0.066699 -1.332680 1.066000 16.377300 -0.000001 -0.000001 4.969620 -1.984200 -0.212535 6.456720 -0.000001 -0.000000 9.268880 -2.859940 -0.489052 12.994200 -0.242716 4.980390 -86.522800 -10.107100 -70.901400 5.348090 -0.000007 -0.000001 -85.626300 -27.312300 -95.339300 24.328600 0.000019 0.000005 8.084840 1.285020 -81.032500 22.291600 -0.000001 0.000005 19.523600 5.536880 -8.101620 12.994500 -0.242716 -4.980390 91.141200 -3.611020 -72.447700 -5.348130 -0.000001 -0.000004 -74.348900 -27.543200 -100.724000 -24.328900 0.000322 -0.000009 13.180500 3.725480 -74.495500 -22.291500 -0.000108 -0.000004 21.680400 5.389530 -2.600370 -2.192480 -6.469440 -0.000000 -175.298000 -8.414820 -1.544240 39.081100 -0.000007 -0.000012 -0.105224 0.245682 23.185300 40.985400 -0.000006 -0.000013 0.168805 4.421810 -66.175200 11.754300 -0.000000 0.000003 -0.000048 -0.000550 -16.598900 -2.192510 6.469440 -0.000001 179.086000 15.604100 -178.603000 -39.081100 -0.002282 -0.040193 -0.037797 0.115094 19.660200 -40.985400 0.000008 0.000006 3.337100 7.682190 -65.791800 -11.754300 -0.000006 -0.000006 -0.008326 -0.090670 -20.265600
0.000000 0.000000 0.000000 0.000000 0.000000 -0.000000 -0.417039 92.295700 -0.940022 88.135500 -0.159710 5.678240 15.735700 0.000005 -0.000001 80.924300 85.973100 -80.377200 8.984550 -0.406207 -0.000000 0.193614 -1.306200 1.095860 16.377300 -0.000001 -0.000001 4.937960 -1.984680 -0.178329 6.456720 -0.000001 -0.000000 9.307930 -2.895680 -0.450206 12.994200 -0.242716 4.980390 -86.607000 -9.855470 -70.894600 5.348090 -0.000007 -0.000001 -84.126200 -27.458400 -91.974600 24.328600 0.000019 0.000005 4.824810 0.522521 -83.854100 22.291600 -0.000001 0.000005 19.069100 5.533000 -7.927860 12.994500 -0.242716 -4.980390 91.041200 -3.256510 -72.258800 -5.348130 -0.000001 -0.000004 -72.236300 -27.773400 -97.763200 -24.328900 0.000322 -0.000009 13.108500 3.054150 -77.114900 -22.291500 -0.000108 -0.000004 21.219700 5.379900 -2.294650 -2.192480 -6.469440 -0.000000 -175.326000 -8.471230 -1.513440 39.081100 -0.000007 -0.000012 -0.104713 0.244390 23.193600 40.985400 -0.000006 -0.000013 0.195265 4.437570 -66.168200 11.754300 -0.000000 0.000003 -0.000045 -0.000521 -16.597800 -2.192510 6.469440 -0.000001 179.029000 15.562700 -178.582000 -39.081100 -0.002282 -0.040193 -0.040769 0.123440 19.656100 -40.985400 0.000008 0.000006 3.080810 7.731100 -65.718200 -11.754300 -0.000006 -0.000006 -0.008328 -0.090691 -20.266400
0.000000 0.000000 0.000000 0.000000 0.000000 -0.000000 -0.388190 92.297700 -0.961485 88.168200 -0.182723 5.743980 15.735700 0.000005 -0.000001 81.027900 85.912000 -80.480600 8.984550 -0.406207 -0.000000 0.316578 -1.310260 1.097380 16.377300 -0.000001 -0.000001 4.829830 -2.023030 -0.201132 6.456720 -0.000001 -0.000000 9.380380 -2.755230 -0.382051 12.994200 -0.242716 4.980390 -86.724900 -9.566200 -70.999500 5.348090 -0.000007 -0.000001 -81.364700 -27.657700 -86.577300 24.328600 0.000019 0.000005 2.189910 0.070407 -88.180300 22.291600 -0.000001 0.000005 18.847100 5.519800 -7.352280 12.994500 -0.242716 -4.980390 90.891700 -2.751790 -72.037100 -5.348130 -0.000001 -0.000004 -69.848100 -27.458400 -93.477000 -24.328900 0.000322 -0.000009 13.701900 2.185390 -81.111900 -22.291500 -0.000108 -0.000004 20.243600 5.360800 -1.702730 -2.192480 -6.469440 -0.000000 -175.372000 -8.490420 -1.432080 39.081100 -0.000007 -0.000012 -0.103603 0.242192 23.160000 40.985400 -0.000006 -0.000013 0.213637 4.414510 -66.150900 11.754300 -0.000000 0.000003 -0.000055 -0.000615 -16.601400 -2.192510 6.469440 -0.000001 178.961000 15.516000 -178.543000 -39.081100 -0.002282 -0.040193 -0.041304 0.124675 19.694100 -40.985400 0.000008 0.000006 3.121480 7.733470 -65.732900 -11.754300 -0.000006 -0.000006 -0.008051 -0.088447 -20.174800
0.000000 0.000000 0.000000 0.000000 0.000000 -0.000000 -0.368270 92.277000 -0.966620 88.158600 -0.156917 5.802090 15.735700 0.000005 -0.000001 80.773900 85.845100 -80.207200 8.984550 -0.406207 -0.000000 0.443563 -1.368110 1.137890 16.377300 -0.000001 -0.000001 4.643900 -2.063630 -0.191131 6.456720 -0.000001 -0.000000 9.527880 -2.633210 -0.453839 12.994200 -0.242716 4.980390 -86.982300 -8.959650 -71.299500 5.348090 -0.000007 -0.000001 -77.190400 -27.603000 -79.292700 24.328600 0.000019 0.000005 1.476740 -0.089788 -93.487700 22.291600 -0.000001 0.000005 18.351800 5.507370 -6.831440 12.994500 -0.242716 -4.980390 90.666000 -2.032530 -71.852400 -5.348130 -0.000001 -0.000004 -67.275400 -26.509900 -88.005900 -24.328900 0.000322 -0.000009 14.691000 1.009350 -86.156100 -22.291500 -0.000108 -0.000004 18.550900 5.343180 -1.171490 -2.192480 -6.469440 -0.000000 -175.368000 -8.488120 -1.478660 39.081100 -0.000007 -0.000012 -0.104783 0.242962 23.329400 40.985400 -0.000006 -0.000013 0.239911 4.437280 -66.219100 11.754300 -0.000000 0.000003 -0.000043 -0.000497 -16.596900 -2.192510 6.469440 -0.000001 178.911000 15.526200 -178.551000 -39.081100 -0.002282 -0.040193 -0.047623 0.141311 19.825200 -40.985400 0.000008 0.000006 2.965780 7.741410 -65.765000 -11.754300 -0.000006 -0.000006 -0.008327 -0.090683 -20.266100
